<svg xmlns = "http://www.w3.org/2000/svg">
    <symbol id = "icon-name" viewBox="0 0 31 31" fill="none">
        <path d="M15.6377 11.4473C18.0539 11.4473 20.0127 9.48851 20.0127 7.07227C20.0127 4.65602 18.0539 2.69727 15.6377 2.69727C13.2214 2.69727 11.2627 4.65602 11.2627 7.07227C11.2627 9.48851 13.2214 11.4473 15.6377 11.4473Z" stroke-width="2" stroke-linecap="round" stroke-linejoin="round"/>
        <path d="M3.1377 25.8223C3.1377 20.2991 8.17457 15.8223 14.3877 15.8223M20.0127 26.4473L26.2627 20.1973L23.7627 17.6973L17.5127 23.9473V26.4473H20.0127Z" stroke-width="2" stroke-linecap="round" stroke-linejoin="round"/>
    </symbol>

    <symbol id="icon-email" width="31" height="31" viewBox="0 0 31 31">
        <path d="M15.6377 3.00977C12.4054 3.00977 9.30543 4.2938 7.01983 6.5794C4.73423 8.865 3.4502 11.9649 3.4502 15.1973C3.4502 18.4296 4.73423 21.5295 7.01983 23.8151C9.30543 26.1007 12.4054 27.3848 15.6377 27.3848C18.1584 27.3848 20.8057 26.6254 22.7193 25.3539C22.8219 25.2857 22.91 25.198 22.9787 25.0958C23.0474 24.9935 23.0953 24.8788 23.1196 24.7581C23.1439 24.6373 23.1442 24.513 23.1205 24.3921C23.0967 24.2713 23.0494 24.1563 22.9812 24.0537C22.9131 23.9511 22.8254 23.863 22.7231 23.7943C22.6209 23.7257 22.5061 23.6778 22.3854 23.6535C22.2647 23.6292 22.1403 23.6289 22.0195 23.6526C21.8986 23.6763 21.7836 23.7236 21.6811 23.7918C20.0908 24.8512 17.7717 25.5098 15.6377 25.5098C13.5981 25.5098 11.6043 24.9049 9.90838 23.7718C8.2125 22.6386 6.89072 21.0281 6.11019 19.1437C5.32966 17.2593 5.12544 15.1858 5.52335 13.1854C5.92126 11.185 6.90343 9.34746 8.34566 7.90523C9.78789 6.463 11.6254 5.48083 13.6258 5.08292C15.6263 4.68501 17.6998 4.88923 19.5841 5.66976C21.4685 6.45029 23.0791 7.77207 24.2122 9.46795C25.3454 11.1638 25.9502 13.1576 25.9502 15.1973C25.9502 18.2969 24.6752 18.9473 23.6064 18.9473C22.5377 18.9473 21.2627 18.2969 21.2627 15.1973V10.5098C21.2627 10.2611 21.1639 10.0227 20.9881 9.84685C20.8123 9.67104 20.5738 9.57227 20.3252 9.57227C20.0766 9.57227 19.8381 9.67104 19.6623 9.84685C19.4865 10.0227 19.3877 10.2611 19.3877 10.5098V11.009C18.5464 10.2547 17.4974 9.77124 16.3774 9.62165C15.2574 9.47205 14.1183 9.66323 13.1085 10.1703C12.0987 10.6773 11.2651 11.4768 10.7161 12.4644C10.1672 13.452 9.92838 14.5821 10.0309 15.7074C10.1334 16.8327 10.5724 17.901 11.2908 18.7732C12.0091 19.6454 12.9735 20.2811 14.0583 20.5973C15.1431 20.9136 16.298 20.8958 17.3725 20.5463C18.4471 20.1968 19.3914 19.5318 20.0826 18.6379C20.7857 20.0441 21.9986 20.8223 23.6064 20.8223C26.2479 20.8223 27.8252 18.7199 27.8252 15.1973C27.8218 11.966 26.5366 8.86803 24.2518 6.58317C21.9669 4.29831 18.869 3.01318 15.6377 3.00977ZM15.6377 18.9473C14.896 18.9473 14.171 18.7273 13.5543 18.3153C12.9376 17.9032 12.457 17.3176 12.1731 16.6323C11.8893 15.9471 11.8151 15.1931 11.9598 14.4657C12.1044 13.7382 12.4616 13.0701 12.986 12.5456C13.5105 12.0212 14.1787 11.664 14.9061 11.5193C15.6335 11.3746 16.3875 11.4489 17.0728 11.7327C17.758 12.0165 18.3437 12.4972 18.7557 13.1139C19.1678 13.7306 19.3877 14.4556 19.3877 15.1973C19.3877 16.1918 18.9926 17.1457 18.2893 17.8489C17.5861 18.5522 16.6323 18.9473 15.6377 18.9473Z"/>
    </symbol>

    <symbol id = "icon-comments" width="31" height="31" viewBox="0 0 31 31">
        <path fill-rule="evenodd" clip-rule="evenodd" d="M3.62708 27.9827C3.53498 27.9827 3.35077 27.9827 3.25867 27.8874C2.89026 27.6969 2.70605 27.4111 2.70605 27.0301V10.836C2.70605 6.07307 6.39017 2.2627 10.9953 2.2627H20.2056C24.8107 2.2627 28.4948 6.07307 28.4948 10.836V14.6464C28.4948 19.4094 24.8107 23.2197 20.2056 23.2197H15.8767C11.64 23.2197 7.4954 24.8391 4.2718 27.7922C4.0876 27.8874 3.81129 27.9827 3.62708 27.9827ZM4.70605 10.836V24.8638C7.97901 22.5028 11.8841 21.2197 15.8767 21.2197H20.2056C23.6432 21.2197 26.4948 18.3689 26.4948 14.6464V10.836C26.4948 7.11358 23.6432 4.2627 20.2056 4.2627H10.9953C7.55773 4.2627 4.70605 7.11358 4.70605 10.836ZM11.1601 14.197C11.984 14.197 12.6519 13.5291 12.6519 12.7052C12.6519 11.8813 11.984 11.2134 11.1601 11.2134C10.3362 11.2134 9.66825 11.8813 9.66825 12.7052C9.66825 13.5291 10.3362 14.197 11.1601 14.197ZM17.624 12.7052C17.624 13.5291 16.956 14.197 16.1321 14.197C15.3082 14.197 14.6403 13.5291 14.6403 12.7052C14.6403 11.8813 15.3082 11.2134 16.1321 11.2134C16.956 11.2134 17.624 11.8813 17.624 12.7052ZM21.1053 14.197C21.9292 14.197 22.5971 13.5291 22.5971 12.7052C22.5971 11.8813 21.9292 11.2134 21.1053 11.2134C20.2814 11.2134 19.6135 11.8813 19.6135 12.7052C19.6135 13.5291 20.2814 14.197 21.1053 14.197Z"/>
    </symbol>
</svg>